0
SECTION
2
HEADER
9
$INSUNITS
70
4
9
$ACADVER
1
AC1014
9
$HANDSEED
5
FFFF
0
ENDSEC
0
SECTION
2
TABLES
0
TABLE
2
VPORT
5
8
100
AcDbSymbolTable
0
ENDTAB
0
TABLE
2
LTYPE
5
5
100
AcDbSymbolTable
0
LTYPE
5
14
100
AcDbSymbolTableRecord
100
AcDbLinetypeTableRecord
2
BYBLOCK
70
0
0
LTYPE
5
15
100
AcDbSymbolTableRecord
100
AcDbLinetypeTableRecord
2
BYLAYER
70
0
0
ENDTAB
0
TABLE
2
LAYER
5
2
100
AcDbSymbolTable
70
2
0
LAYER
5
50
100
AcDbSymbolTableRecord
100
AcDbLayerTableRecord
2
0
70
0
6
CONTINUOUS
0
ENDTAB
0
TABLE
2
STYLE
5
3
100
AcDbSymbolTable
70
1
0
STYLE
5
11
100
AcDbSymbolTableRecord
100
AcDbTextStyleTableRecord
2
STANDARD
70
0
0
ENDTAB
0
TABLE
2
VIEW
5
6
100
AcDbSymbolTable
70
0
0
ENDTAB
0
TABLE
2
UCS
5
7
100
AcDbSymbolTable
70
0
0
ENDTAB
0
TABLE
2
APPID
5
9
100
AcDbSymbolTable
70
2
0
APPID
5
12
100
AcDbSymbolTableRecord
100
AcDbRegAppTableRecord
2
ACAD
70
0
0
ENDTAB
0
TABLE
2
DIMSTYLE
5
A
100
AcDbSymbolTable
70
1
0
ENDTAB
0
TABLE
2
BLOCK_RECORD
5
1
100
AcDbSymbolTable
70
1
0
BLOCK_RECORD
5
1F
100
AcDbSymbolTableRecord
100
AcDbBlockTableRecord
2
*MODEL_SPACE
0
BLOCK_RECORD
5
1B
100
AcDbSymbolTableRecord
100
AcDbBlockTableRecord
2
*PAPER_SPACE
0
ENDTAB
0
ENDSEC
0
SECTION
2
BLOCKS
0
BLOCK
5
20
100
AcDbEntity
100
AcDbBlockBegin
2
*MODEL_SPACE
0
ENDBLK
5
21
100
AcDbEntity
100
AcDbBlockEnd
0
BLOCK
5
1C
100
AcDbEntity
100
AcDbBlockBegin
2
*PAPER_SPACE
0
ENDBLK
5
1D
100
AcDbEntity
100
AcDbBlockEnd
0
ENDSEC
0
SECTION
2
ENTITIES
0
LWPOLYLINE
5
100
100
AcDbEntity
8
0
100
AcDbPolyline
90
4
70
1
43
0.0
10
-8.5507320236179307
20
-37.245000657966287
10
-8.5507320236179307
20
-44.245000657966287
42
-0.99999999999999989
10
-13.700732023617931
20
-44.245000657966287
10
-13.700732023617931
20
-37.245000657966287
42
-0.99999999999999989
0
LWPOLYLINE
5
101
100
AcDbEntity
8
0
100
AcDbPolyline
90
4
70
1
43
0.0
10
-59.700732023617952
20
-44.245000657966287
10
-59.700732023617952
20
-37.291297152797313
42
-0.99999999999999989
10
-54.550732023617947
20
-37.291297152797313
10
-54.550732023617947
20
-44.245000657966287
42
-0.99999999999999989
0
LINE
5
102
100
AcDbEntity
8
0
100
AcDbLine
10
-20.009865792831398
20
-61.245000657966301
30
0
11
5.9901342071686026
21
-61.245000657966287
31
0
0
SPLINE
5
103
100
AcDbEntity
8
0
100
AcDbSpline
70
4
71
5
72
26
73
20
74
0
42
0.000000001
43
0.0000000001
44
0.0000000001
40
0
40
0
40
0
40
0
40
0
40
0
40
0.066666666666666666
40
0.13333333333333333
40
0.20000000000000001
40
0.26666666666666666
40
0.33333333333333331
40
0.39999999999999997
40
0.46666666666666662
40
0.53333333333333333
40
0.59999999999999998
40
0.66666666666666663
40
0.73333333333333328
40
0.79999999999999993
40
0.86666666666666659
40
0.93333333333333324
40
1
40
1
40
1
40
1
40
1
40
1
41
1
41
1
41
1
41
1
41
1
41
1
41
1
41
1
41
1
41
1
41
1
41
1
41
1
41
1
41
1
41
1
41
1
41
1
41
1
41
1
10
5.9901342071686026
20
-61.245000657966287
30
0
10
6.787796686600025
20
-61.245000657966287
30
0
10
8.4000227863873036
20
-61.209504845425322
30
0
10
10.869034198344753
20
-61.049786112741046
30
0
10
14.230853280477771
20
-60.633516790062387
30
0
10
18.399645909324683
20
-59.814584717198741
30
0
10
22.405978281903884
20
-58.719954123637628
30
0
10
26.221037940373581
20
-57.32704005108932
30
0
10
30.029839159881327
20
-55.527077752973199
30
0
10
34.127003599869369
20
-53.170096684610357
30
0
10
38.755507089518872
20
-50.133953743842945
30
0
10
43.97601375199752
20
-46.380987021324401
30
0
10
49.491162295700128
20
-42.037579556870824
30
0
10
54.521481554988199
20
-37.4478366245324
30
0
10
58.682715774462643
20
-32.749147040298269
30
0
10
61.729261181399366
20
-28.00528468057205
30
0
10
63.201406038034698
20
-24.166579080324357
30
0
10
63.751910271649528
20
-21.249283449307008
30
0
10
63.874267976376515
20
-19.284239446304554
30
0
10
63.874267976376807
20
-18.296680641389756
30
0
0
ARC
5
104
100
AcDbEntity
8
0
100
AcDbCircle
10
17.085961094500032
20
-4.6813776451434652
30
0
40
29.788306881882043
210
0
220
0
230
1
100
AcDbArc
50
-90
51
0
0
LINE
5
105
100
AcDbEntity
8
0
100
AcDbLine
10
17.085961094500021
20
-34.469684527025507
30
0
11
-3.2567800850266293
21
-34.469684527025507
31
0
0
ARC
5
106
100
AcDbEntity
8
0
100
AcDbCircle
10
-3.2567800850266257
20
-29.256338722630552
30
0
40
5.2133458043949599
210
0
220
0
230
1
100
AcDbArc
50
225.43252076549493
51
269.99999999999994
0
ARC
5
107
100
AcDbEntity
8
0
100
AcDbCircle
10
-11.125732023617932
20
-37.245000657966287
30
0
40
5.9999999999999956
210
0
220
-0
230
1
100
AcDbArc
50
45.432520765494864
51
137.54295989332763
0
ARC
5
108
100
AcDbEntity
8
0
100
AcDbCircle
10
-34.146954416506425
20
-16.181669757576756
30
0
40
25.203214403040835
210
0
220
0
230
1
100
AcDbArc
50
222.57237023121294
51
317.54295989332763
0
ARC
5
109
100
AcDbEntity
8
0
100
AcDbCircle
10
-57.12573202361795
20
-37.291297152797313
30
0
40
6.0000000000000178
210
0
220
-0
230
1
100
AcDbArc
50
42.572370231212957
51
180
0
LINE
5
110
100
AcDbEntity
8
0
100
AcDbLine
10
-63.125732023617957
20
-37.291297152797313
30
0
11
-63.125732023617942
21
-45.492510499637994
31
0
0
ARC
5
111
100
AcDbEntity
8
0
100
AcDbCircle
10
-58.717433113098849
20
-45.492510499637973
30
0
40
4.4082989105190951
210
0
220
0
230
1
100
AcDbArc
50
180
51
251.97490603285075
0
LINE
5
112
100
AcDbEntity
8
0
100
AcDbLine
10
-60.081508479203443
20
-49.68445487895557
30
0
11
-28.876592206001149
21
-59.838658689511206
31
0
0
ARC
5
113
100
AcDbEntity
8
0
100
AcDbCircle
10
-20.009865792831455
20
-32.590293332879256
30
0
40
28.654707325228458
210
0
220
0
230
1
100
AcDbArc
50
251.97490603238174
51
270.00000000000011
0
LWPOLYLINE
5
114
100
AcDbEntity
8
0
100
AcDbPolyline
90
4
70
1
43
0.0
10
-8.5507320236179307
20
48.754999342033713
10
-8.5507320236179307
20
55.754999342033713
42
0.99999999999999989
10
-13.700732023617931
20
55.754999342033713
10
-13.700732023617931
20
48.754999342033713
42
0.99999999999999989
0
LWPOLYLINE
5
115
100
AcDbEntity
8
0
100
AcDbPolyline
90
4
70
1
43
0.0
10
-59.700732023617952
20
55.754999342033713
10
-59.700732023617952
20
48.801295836864739
42
0.99999999999999989
10
-54.550732023617947
20
48.801295836864739
10
-54.550732023617947
20
55.754999342033713
42
0.99999999999999989
0
LINE
5
116
100
AcDbEntity
8
0
100
AcDbLine
10
-20.009865792831398
20
72.754999342033727
30
0
11
5.9901342071686026
21
72.754999342033713
31
0
0
SPLINE
5
117
100
AcDbEntity
8
0
100
AcDbSpline
70
4
71
5
72
26
73
20
74
0
42
0.000000001
43
0.0000000001
44
0.0000000001
40
0
40
0
40
0
40
0
40
0
40
0
40
0.066666666666666666
40
0.13333333333333333
40
0.20000000000000001
40
0.26666666666666666
40
0.33333333333333331
40
0.39999999999999997
40
0.46666666666666662
40
0.53333333333333333
40
0.59999999999999998
40
0.66666666666666663
40
0.73333333333333328
40
0.79999999999999993
40
0.86666666666666659
40
0.93333333333333324
40
1
40
1
40
1
40
1
40
1
40
1
41
1
41
1
41
1
41
1
41
1
41
1
41
1
41
1
41
1
41
1
41
1
41
1
41
1
41
1
41
1
41
1
41
1
41
1
41
1
41
1
10
5.9901342071686026
20
72.754999342033713
30
0
10
6.787796686600025
20
72.754999342033713
30
0
10
8.4000227863873036
20
72.719503529492741
30
0
10
10.869034198344753
20
72.559784796808472
30
0
10
14.230853280477771
20
72.143515474129813
30
0
10
18.399645909324683
20
71.324583401266167
30
0
10
22.405978281903884
20
70.229952807705047
30
0
10
26.221037940373581
20
68.837038735156739
30
0
10
30.029839159881327
20
67.037076437040625
30
0
10
34.127003599869369
20
64.680095368677783
30
0
10
38.755507089518872
20
61.643952427910371
30
0
10
43.97601375199752
20
57.890985705391827
30
0
10
49.491162295700128
20
53.54757824093825
30
0
10
54.521481554988199
20
48.957835308599826
30
0
10
58.682715774462643
20
44.259145724365695
30
0
10
61.729261181399366
20
39.515283364639473
30
0
10
63.201406038034698
20
35.67657776439178
30
0
10
63.751910271649528
20
32.759282133374434
30
0
10
63.874267976376515
20
30.79423813037198
30
0
10
63.874267976376807
20
29.806679325457182
30
0
0
LINE
5
118
100
AcDbEntity
8
0
100
AcDbLine
10
63.874267976376807
20
-18.296680641389756
30
0
11
63.874267976376807
21
29.806679325457175
31
0
0
LINE
5
119
100
AcDbEntity
8
0
100
AcDbLine
10
46.874267976382072
20
-4.6813776451434546
30
0
11
46.874267976382072
21
16.191376329210879
31
0
0
ARC
5
120
100
AcDbEntity
8
0
100
AcDbCircle
10
17.085961094500021
20
16.191376329210886
30
0
40
29.788306881882054
210
-0
220
0
230
1
100
AcDbArc
50
0
51
90
0
LINE
5
121
100
AcDbEntity
8
0
100
AcDbLine
10
17.085961094500021
20
45.979683211092933
30
0
11
-3.2567800850266293
21
45.979683211092933
31
0
0
ARC
5
122
100
AcDbEntity
8
0
100
AcDbCircle
10
-3.2567800850266311
20
40.766337406697986
30
0
40
5.213345804394951
210
0
220
-0
230
1
100
AcDbArc
50
89.999999999999986
51
134.56747923450507
0
ARC
5
123
100
AcDbEntity
8
0
100
AcDbCircle
10
-11.125732023617932
20
48.754999342033713
30
0
40
5.9999999999999956
210
0
220
0
230
1
100
AcDbArc
50
222.45704010667242
51
314.56747923450513
0
ARC
5
124
100
AcDbEntity
8
0
100
AcDbCircle
10
-34.146954416506425
20
27.691668441644197
30
0
40
25.203214403040832
210
0
220
-0
230
1
100
AcDbArc
50
42.457040106672309
51
137.42762976878709
0
ARC
5
125
100
AcDbEntity
8
0
100
AcDbCircle
10
-57.12573202361795
20
48.801295836864739
30
0
40
5.9999999999999964
210
0
220
0
230
1
100
AcDbArc
50
180
51
317.42762976878709
0
LINE
5
126
100
AcDbEntity
8
0
100
AcDbLine
10
-63.125732023617942
20
48.801295836864739
30
0
11
-63.125732023617942
21
57.002509183705421
31
0
0
ARC
5
127
100
AcDbEntity
8
0
100
AcDbCircle
10
-58.717433113098863
20
57.002509183705421
30
0
40
4.408298910430811
210
0
220
0
230
1
100
AcDbArc
50
108.02509396714916
51
180
0
LINE
5
128
100
AcDbEntity
8
0
100
AcDbLine
10
-60.081508479203443
20
61.194453563022989
30
0
11
-28.876592206001149
21
71.348657373578632
31
0
0
ARC
5
129
100
AcDbEntity
8
0
100
AcDbCircle
10
-20.009865792831405
20
44.10029201694627
30
0
40
28.654707325087454
210
0
220
-0
230
1
100
AcDbArc
50
89.999999999999986
51
108.02509396761813
0
ENDSEC
0
SECTION
2
OBJECTS
0
DICTIONARY
5
C
100
AcDbDictionary
3
ACAD_GROUP
350
D
3
ACAD_MLINESTYLE
350
17
0
DICTIONARY
5
D
100
AcDbDictionary
0
DICTIONARY
5
1A
330
C
100
AcDbDictionary
0
DICTIONARY
5
17
100
AcDbDictionary
0
ENDSEC
0
EOF
