0
SECTION
2
HEADER
9
$INSUNITS
70
1
9
$ACADVER
1
AC1014
9
$HANDSEED
5
FFFF
0
ENDSEC
0
SECTION
2
TABLES
0
TABLE
2
VPORT
5
8
100
AcDbSymbolTable
0
ENDTAB
0
TABLE
2
LTYPE
5
5
100
AcDbSymbolTable
0
LTYPE
5
14
100
AcDbSymbolTableRecord
100
AcDbLinetypeTableRecord
2
BYBLOCK
70
0
0
LTYPE
5
15
100
AcDbSymbolTableRecord
100
AcDbLinetypeTableRecord
2
BYLAYER
70
0
0
ENDTAB
0
TABLE
2
LAYER
5
2
100
AcDbSymbolTable
70
2
0
LAYER
5
50
100
AcDbSymbolTableRecord
100
AcDbLayerTableRecord
2
0
70
0
6
CONTINUOUS
0
ENDTAB
0
TABLE
2
STYLE
5
3
100
AcDbSymbolTable
70
1
0
STYLE
5
11
100
AcDbSymbolTableRecord
100
AcDbTextStyleTableRecord
2
STANDARD
70
0
0
ENDTAB
0
TABLE
2
VIEW
5
6
100
AcDbSymbolTable
70
0
0
ENDTAB
0
TABLE
2
UCS
5
7
100
AcDbSymbolTable
70
0
0
ENDTAB
0
TABLE
2
APPID
5
9
100
AcDbSymbolTable
70
2
0
APPID
5
12
100
AcDbSymbolTableRecord
100
AcDbRegAppTableRecord
2
ACAD
70
0
0
ENDTAB
0
TABLE
2
DIMSTYLE
5
A
100
AcDbSymbolTable
70
1
0
ENDTAB
0
TABLE
2
BLOCK_RECORD
5
1
100
AcDbSymbolTable
70
1
0
BLOCK_RECORD
5
1F
100
AcDbSymbolTableRecord
100
AcDbBlockTableRecord
2
*MODEL_SPACE
0
BLOCK_RECORD
5
1B
100
AcDbSymbolTableRecord
100
AcDbBlockTableRecord
2
*PAPER_SPACE
0
ENDTAB
0
ENDSEC
0
SECTION
2
BLOCKS
0
BLOCK
5
20
100
AcDbEntity
100
AcDbBlockBegin
2
*MODEL_SPACE
0
ENDBLK
5
21
100
AcDbEntity
100
AcDbBlockEnd
0
BLOCK
5
1C
100
AcDbEntity
100
AcDbBlockBegin
2
*PAPER_SPACE
0
ENDBLK
5
1D
100
AcDbEntity
100
AcDbBlockEnd
0
ENDSEC
0
SECTION
2
ENTITIES
0
LWPOLYLINE
5
100
100
AcDbEntity
8
0
100
AcDbPolyline
90
6
70
1
43
0.0
10
0.44525398556059997
20
3.8048324277323142
42
0.40597970780892617
10
0.44245622836459192
20
3.689194972833945
10
0.80224270877563131
20
3.3007473198153581
42
1.0141971767125886
10
1.0078655179940821
20
3.4966554051103924
10
0.628569079572318
20
3.8836863573146272
42
0.41421356237309553
10
0.52676434795740801
20
3.8847138686752132
0
SPLINE
5
101
100
AcDbEntity
8
0
100
AcDbSpline
70
6
71
5
72
131
73
125
74
0
42
0.000000001
43
0.0000000001
44
0.0000000001
40
0
40
0
40
0
40
0
40
0
40
0
40
0.0083333333333333332
40
0.016666666666666666
40
0.025000000000000001
40
0.033333333333333333
40
0.041666666666666664
40
0.049999999999999996
40
0.058333333333333327
40
0.066666666666666666
40
0.074999999999999997
40
0.083333333333333329
40
0.09166666666666666
40
0.099999999999999992
40
0.10833333333333332
40
0.11666666666666665
40
0.12499999999999999
40
0.13333333333333333
40
0.14166666666666666
40
0.14999999999999999
40
0.15833333333333333
40
0.16666666666666666
40
0.17499999999999999
40
0.18333333333333332
40
0.19166666666666665
40
0.19999999999999998
40
0.20833333333333331
40
0.21666666666666665
40
0.22499999999999998
40
0.23333333333333331
40
0.24166666666666664
40
0.24999999999999997
40
0.2583333333333333
40
0.26666666666666666
40
0.27500000000000002
40
0.28333333333333338
40
0.29166666666666674
40
0.3000000000000001
40
0.30833333333333346
40
0.31666666666666682
40
0.32500000000000018
40
0.33333333333333354
40
0.3416666666666669
40
0.35000000000000026
40
0.35833333333333361
40
0.36666666666666697
40
0.37500000000000033
40
0.38333333333333369
40
0.39166666666666705
40
0.40000000000000041
40
0.40833333333333377
40
0.41666666666666713
40
0.42500000000000049
40
0.43333333333333385
40
0.44166666666666721
40
0.45000000000000057
40
0.45833333333333393
40
0.46666666666666728
40
0.47500000000000064
40
0.483333333333334
40
0.49166666666666736
40
0.50000000000000067
40
0.50833333333333397
40
0.51666666666666727
40
0.52500000000000058
40
0.53333333333333388
40
0.54166666666666718
40
0.55000000000000049
40
0.55833333333333379
40
0.5666666666666671
40
0.5750000000000004
40
0.5833333333333337
40
0.59166666666666701
40
0.60000000000000031
40
0.60833333333333361
40
0.61666666666666692
40
0.62500000000000022
40
0.63333333333333353
40
0.64166666666666683
40
0.65000000000000013
40
0.65833333333333344
40
0.66666666666666674
40
0.67500000000000004
40
0.68333333333333335
40
0.69166666666666665
40
0.69999999999999996
40
0.70833333333333326
40
0.71666666666666656
40
0.72499999999999987
40
0.73333333333333317
40
0.74166666666666647
40
0.74999999999999978
40
0.75833333333333308
40
0.76666666666666639
40
0.77499999999999969
40
0.78333333333333299
40
0.7916666666666663
40
0.7999999999999996
40
0.8083333333333329
40
0.81666666666666621
40
0.82499999999999951
40
0.83333333333333282
40
0.84166666666666612
40
0.84999999999999942
40
0.85833333333333273
40
0.86666666666666603
40
0.87499999999999933
40
0.88333333333333264
40
0.89166666666666594
40
0.89999999999999925
40
0.90833333333333255
40
0.91666666666666585
40
0.92499999999999916
40
0.93333333333333246
40
0.94166666666666576
40
0.94999999999999907
40
0.95833333333333237
40
0.96666666666666567
40
0.97499999999999898
40
0.98333333333333228
40
0.99166666666666559
40
1
40
1
40
1
40
1
40
1
40
1
41
1
41
1
41
1
41
1
41
1
41
1
41
1
41
1
41
1
41
1
41
1
41
1
41
1
41
1
41
1
41
1
41
1
41
1
41
1
41
1
41
1
41
1
41
1
41
1
41
1
41
1
41
1
41
1
41
1
41
1
41
1
41
1
41
1
41
1
41
1
41
1
41
1
41
1
41
1
41
1
41
1
41
1
41
1
41
1
41
1
41
1
41
1
41
1
41
1
41
1
41
1
41
1
41
1
41
1
41
1
41
1
41
1
41
1
41
1
41
1
41
1
41
1
41
1
41
1
41
1
41
1
41
1
41
1
41
1
41
1
41
1
41
1
41
1
41
1
41
1
41
1
41
1
41
1
41
1
41
1
41
1
41
1
41
1
41
1
41
1
41
1
41
1
41
1
41
1
41
1
41
1
41
1
41
1
41
1
41
1
41
1
41
1
41
1
41
1
41
1
41
1
41
1
41
1
41
1
41
1
41
1
41
1
41
1
41
1
41
1
41
1
41
1
41
1
41
1
41
1
41
1
41
1
41
1
41
1
41
1
41
1
41
1
41
1
41
1
41
1
10
-1.8602171481681693
20
2.3524733594421678
30
0
10
-1.8539242614883782
20
2.3820336718871862
30
0
10
-1.8446382714062186
20
2.4409114129504998
30
0
10
-1.8406005132423624
20
2.5285815486715379
30
0
10
-1.8541048321875198
20
2.6448319804266136
30
0
10
-1.8968460360200368
20
2.7916498896971254
30
0
10
-1.9573777193386135
20
2.9428342037305231
30
0
10
-2.0260974480970657
20
3.1008981022825295
30
0
10
-2.0928169387975912
20
3.2672907283930273
30
0
10
-2.14762141253795
20
3.4419428893138386
30
0
10
-2.1815622171002835
20
3.6233402988841998
30
0
10
-2.1873739844111304
20
3.808491781781977
30
0
10
-2.1602060131684548
20
3.9929240548034581
30
0
10
-2.0982945029006745
20
4.1706985651502944
30
0
10
-2.0038054426766663
20
4.3343280110398652
30
0
10
-1.8818916829228365
20
4.4757761897963961
30
0
10
-1.7395430162608496
20
4.5875611458664896
30
0
10
-1.5844726235943252
20
4.6638901182042636
30
0
10
-1.4240748708861581
20
4.7016270200603225
30
0
10
-1.2641369847797532
20
4.7017199846860507
30
0
10
-1.1086550870047969
20
4.668642229392427
30
0
10
-0.96035019789587772
20
4.6085941864047895
30
0
10
-0.82098347087816015
20
4.5280399569150172
30
0
10
-0.69172972635167451
20
4.4321942597037909
30
0
10
-0.57358933060982631
20
4.3232972799347458
30
0
10
-0.46704887450997518
20
4.2016878371369364
30
0
10
-0.37164152054950111
20
4.0672478882289722
30
0
10
-0.28552636529506203
20
3.9207454650391282
30
0
10
-0.20509704913277227
20
3.7651496241837963
30
0
10
-0.12447601957749885
20
3.6071480196163543
30
0
10
-0.036708002916193715
20
3.455444142764351
30
0
10
0.064937043243377859
20
3.3188287414479869
30
0
10
0.1856372662840495
20
3.2042431301211822
30
0
10
0.32784548949354564
20
3.1150498590132094
30
0
10
0.48968156304107469
20
3.0486903440607209
30
0
10
0.66568275266253896
20
2.9976960678818196
30
0
10
0.84842811148192443
20
2.9519457558527531
30
0
10
1.0299033862184543
20
2.9005501965144762
30
0
10
1.2029137098890892
20
2.8338116887505369
30
0
10
1.3626187967801189
20
2.745342440216981
30
0
10
1.5075812413565108
20
2.6335351503554603
30
0
10
1.6385979915598337
20
2.50007918862413
30
0
10
1.7578702001025568
20
2.3489241072528961
30
0
10
1.8680057502671767
20
2.1850299853935016
30
0
10
1.9711760441802981
20
2.013300451461582
30
0
10
2.068001812267926
20
1.8372115877685171
30
0
10
2.1573912178858472
20
1.6584933363141883
30
0
10
2.2372325865506153
20
1.4777494124301562
30
0
10
2.3048396701156526
20
1.2948099637387711
30
0
10
2.3575193154529228
20
1.1092073008360008
30
0
10
2.3930371173031992
20
0.92056619718823396
30
0
10
2.410250176846477
20
0.72911167775749319
30
0
10
2.4091527580655354
20
0.53578910859763351
30
0
10
2.3904310557005752
20
0.34206928829420974
30
0
10
2.355166269820244
20
0.14984141704892459
30
0
10
2.304456502077612
20
-0.038727518794260805
30
0
10
2.2391213127883565
20
-0.22132403031508607
30
0
10
2.1592487283402026
20
-0.39561005294084106
30
0
10
2.0644889786499379
20
-0.55942280700013247
30
0
10
1.9546610216116393
20
-0.71101002725522489
30
0
10
1.8302601396529272
20
-0.84925437277015337
30
0
10
1.6930040841298626
20
-0.97390150029105227
30
0
10
1.5463700260021545
20
-1.0857896223604524
30
0
10
1.3961170371581968
20
-1.1870716056619535
30
0
10
1.2492731270146304
20
-1.2809167381278208
30
0
10
1.1131533256454136
20
-1.3712178076112536
30
0
10
0.99435427890312078
20
-1.4623025126409581
30
0
10
0.89778628476806732
20
-1.558629643389148
30
0
10
0.82561649466519749
20
-1.6645285226277622
30
0
10
0.7769243422725387
20
-1.783514773075809
30
0
10
0.74741745531366233
20
-1.9175084334080028
30
0
10
0.72922338237352269
20
-2.0661401123532617
30
0
10
0.71039681295281587
20
-2.2258800630280122
30
0
10
0.6770681461461252
20
-2.3906606119990883
30
0
10
0.6159760530837336
20
-2.552730108381966
30
0
10
0.51693824611496841
20
-2.7034296506671143
30
0
10
0.37518318217526381
20
-2.8339910315938219
30
0
10
0.19418180027534357
20
-2.9363533978318488
30
0
10
-0.0160931808323444
20
-3.0037075392923684
30
0
10
-0.24169532728697077
20
-3.0310032956728068
30
0
10
-0.46691945851930544
20
-3.0154487754859933
30
0
10
-0.67672579301207714
20
-2.957063561537614
30
0
10
-0.85889049655315175
20
-2.8590943972920955
30
0
10
-1.0067468234295953
20
-2.7287882023132992
30
0
10
-1.1188014450572761
20
-2.5762207518538229
30
0
10
-1.1972630945197063
20
-2.4124714230124158
30
0
10
-1.2468957289283131
20
-2.2479438375704746
30
0
10
-1.2738136222236771
20
-2.0907804774827103
30
0
10
-1.2841187459987258
20
-1.9448619556495101
30
0
10
-1.2832311437201283
20
-1.8092530165901473
30
0
10
-1.2766666109088265
20
-1.6805220040374489
30
0
10
-1.2704383616127997
20
-1.5543717720302803
30
0
10
-1.2717404429650441
20
-1.4276836268565445
30
0
10
-1.2891202609220263
20
-1.2999785704886238
30
0
10
-1.3299046964055248
20
-1.172220898223129
30
0
10
-1.3980972469886039
20
-1.0459641934021939
30
0
10
-1.4917855749549864
20
-0.92229431122331995
30
0
10
-1.6016440923832274
20
-0.80106794267420045
30
0
10
-1.7148607791229136
20
-0.68144384560104787
30
0
10
-1.8185622158628976
20
-0.56227735845077276
30
0
10
-1.9031067898422434
20
-0.44253527939705589
30
0
10
-1.9662111348422033
20
-0.32177831452375466
30
0
10
-2.0140428937723756
20
-0.20035249959175655
30
0
10
-2.0567332298332976
20
-0.079040839850545719
30
0
10
-2.1053271823425095
20
0.041156445654143614
30
0
10
-2.1677631701037248
20
0.15930692655890116
30
0
10
-2.2465337806855064
20
0.2747591377240674
30
0
10
-2.3397640714732892
20
0.38724360350114762
30
0
10
-2.4416395480917323
20
0.49699339746749999
30
0
10
-2.5430858635148961
20
0.60485846383483577
30
0
10
-2.6323496528628358
20
0.71241963848003542
30
0
10
-2.6972993648752555
20
0.8216528975249322
30
0
10
-2.7276767429275899
20
0.93459889175884892
30
0
10
-2.7173972256961214
20
1.0530292256673253
30
0
10
-2.666753380171198
20
1.1781180718171638
30
0
10
-2.5809671308304805
20
1.3104168247131798
30
0
10
-2.4688087367843448
20
1.4498081802989187
30
0
10
-2.3412270176184298
20
1.5954944528043928
30
0
10
-2.2098934590253196
20
1.7459062571730122
30
0
10
-2.0861131485771374
20
1.8989031857321084
30
0
10
-1.9800979469621049
20
2.0522561380440507
30
0
10
-1.9161313991413174
20
2.1736934481134491
30
0
10
-1.8823955914849715
20
2.2635495382803841
30
0
10
-1.8665100348479626
20
2.3229130469971468
30
0
10
-1.8602171481681693
20
2.3524733594421678
30
0
0
LWPOLYLINE
5
102
100
AcDbEntity
8
0
100
AcDbPolyline
90
4
70
1
43
0.0
10
-2.2278489961735342
20
-0.73204843274542952
10
-2.2278489961735337
20
-1.782259473793472
42
-0.99999999999999989
10
-2.6057051557652606
20
-1.782259473793472
10
-2.6057051557652602
20
-0.73204843274542952
42
-0.99999999999999989
0
CIRCLE
5
103
100
AcDbEntity
8
0
100
AcDbCircle
10
0.24652037402284072
20
4.10599311410592
30
0
40
0.14999999999999999
210
0
220
-0
230
1
0
CIRCLE
5
104
100
AcDbEntity
8
0
100
AcDbCircle
10
-2.7753759825459552
20
-3.3050197732191591
30
0
40
0.24000000000000013
210
0
220
-0
230
1
0
CIRCLE
5
105
100
AcDbEntity
8
0
100
AcDbCircle
10
2.1026249256794096
20
2.7494592014808306
30
0
40
0.24000000000000013
210
0
220
-0
230
1
0
CIRCLE
5
106
100
AcDbEntity
8
0
100
AcDbCircle
10
2.4297169984623932
20
2.3081581336808328
30
0
40
0.15000000000000008
210
0
220
-0
230
1
0
CIRCLE
5
107
100
AcDbEntity
8
0
100
AcDbCircle
10
-0.05238978181796379
20
-5.1592069930965652
30
0
40
0.14999999999999999
210
0
220
-0
230
1
0
CIRCLE
5
108
100
AcDbEntity
8
0
100
AcDbCircle
10
-2.908172577961142
20
-0.38114660488211699
30
0
40
0.15000000000000008
210
0
220
-0
230
1
0
CIRCLE
5
109
100
AcDbEntity
8
0
100
AcDbCircle
10
2.7087088639569719
20
-1.7687957645960677
30
0
40
0.15000000000000008
210
0
220
-0
230
1
0
CIRCLE
5
110
100
AcDbEntity
8
0
100
AcDbCircle
10
-2.7929929882802078
20
2.7734994435806297
30
0
40
0.15000000000000008
210
0
220
-0
230
1
0
ARC
5
111
100
AcDbEntity
8
0
100
AcDbCircle
10
-2.908172577961142
20
-0.38114660488211699
30
0
40
0.26000000000000012
210
0
220
0
230
1
100
AcDbArc
50
108.66302254431318
51
250.00189501065674
0
SPLINE
5
112
100
AcDbEntity
8
0
100
AcDbSpline
70
4
71
5
72
12
73
6
74
0
42
0.000000001
43
0.0000000001
44
0.0000000001
40
0
40
0
40
0
40
0
40
0
40
0
40
0.019554797282092803
40
0.019554797282092803
40
0.019554797282092803
40
0.019554797282092803
40
0.019554797282092803
40
0.019554797282092803
41
1
41
1
41
1
41
1
41
1
41
1
10
-2.9970897344919729
20
-0.62546962728170952
30
0
10
-2.9926803322527151
20
-0.62707435329264694
30
0
10
-2.9883324867578938
20
-0.62853151770674187
30
0
10
-2.9840472188975049
20
-0.6298452516737395
30
0
10
-2.9798326403056183
20
-0.63105497146750145
30
0
10
-2.9757015653474848
20
-0.63222395523968633
30
0
0
SPLINE
5
113
100
AcDbEntity
8
0
100
AcDbSpline
70
4
71
5
72
41
73
35
74
0
42
0.000000001
43
0.0000000001
44
0.0000000001
40
0.019554797282092869
40
0.019554797282092869
40
0.019554797282092869
40
0.019554797282092869
40
0.019554797282092869
40
0.019554797282092869
40
0.033333333333333333
40
0.066666666666666666
40
0.10000000000000001
40
0.13333333333333333
40
0.16666666666666666
40
0.19999999999999998
40
0.23333333333333331
40
0.26666666666666666
40
0.29999999999999999
40
0.33333333333333331
40
0.36666666666666664
40
0.39999999999999997
40
0.43333333333333329
40
0.46666666666666662
40
0.49999999999999994
40
0.53333333333333333
40
0.56666666666666665
40
0.59999999999999998
40
0.6333333333333333
40
0.66666666666666663
40
0.69999999999999996
40
0.73333333333333328
40
0.76666666666666661
40
0.79999999999999993
40
0.83333333333333326
40
0.86666666666666659
40
0.89999999999999991
40
0.93333333333333324
40
0.96666666666666656
40
1
40
1
40
1
40
1
40
1
40
1
41
1
41
1
41
1
41
1
41
1
41
1
41
1
41
1
41
1
41
1
41
1
41
1
41
1
41
1
41
1
41
1
41
1
41
1
41
1
41
1
41
1
41
1
41
1
41
1
41
1
41
1
41
1
41
1
41
1
41
1
41
1
41
1
41
1
41
1
41
1
10
-2.9757015653474843
20
-0.63222395523968633
30
0
10
-2.9727907622120746
20
-0.63304763470902647
30
0
10
-2.9629798339484221
20
-0.6357948253172393
30
0
10
-2.9471444287665984
20
-0.64052391439648759
30
0
10
-2.9278923886128032
20
-0.65192339252795151
30
0
10
-2.9129657902482071
20
-0.69655987197072755
30
0
10
-2.906829028010645
20
-0.78449303859692732
30
0
10
-2.9063488072247838
20
-0.89424785066368806
30
0
10
-2.9090604427921898
20
-1.0190304161650166
30
0
10
-2.9127846763623433
20
-1.1515404891600283
30
0
10
-2.916381844501668
20
-1.2873811336922751
30
0
10
-2.9191758814432363
20
-1.4230608941867624
30
0
10
-2.9209560691117278
20
-1.5563347481369378
30
0
10
-2.9217327706242715
20
-1.6855443500084863
30
0
10
-2.9216038555842192
20
-1.8094009803677118
30
0
10
-2.9205684989137337
20
-1.9265674537658743
30
0
10
-2.9185571587816108
20
-2.0357938094005088
30
0
10
-2.9154605357187129
20
-2.1360405696286202
30
0
10
-2.9111600009567478
20
-2.226609415355628
30
0
10
-2.9055559081389926
20
-2.3072800054169926
30
0
10
-2.8986007689042808
20
-2.3784376348043978
30
0
10
-2.8903222882279231
20
-2.4412400465792716
30
0
10
-2.8808778294434925
20
-2.4976893859155904
30
0
10
-2.8707966436980947
20
-2.5501382349292476
30
0
10
-2.8611914159022076
20
-2.6008753198559482
30
0
10
-2.8540073676606146
20
-2.6516660790782107
30
0
10
-2.8521966449571154
20
-2.7033539175757677
30
0
10
-2.8587377763662207
20
-2.7560423256236355
30
0
10
-2.8758385184852542
20
-2.8092401977954276
30
0
10
-2.9038456722793851
20
-2.8620029248054921
30
0
10
-2.9409850485159783
20
-2.9131148411984893
30
0
10
-2.9759388988326929
20
-2.951718486974364
30
0
10
-3.0040137485637035
20
-2.9789627519636972
30
0
10
-3.0234030022633673
20
-2.9963126218679959
30
0
10
-3.0332657473851778
20
-3.0047843093473228
30
0
0
ARC
5
114
100
AcDbEntity
8
0
100
AcDbCircle
10
-2.7753759825459552
20
-3.3050197732191591
30
0
40
0.39578840884387489
210
0
220
0
230
1
100
AcDbArc
50
130.66120607369655
51
272.07730988182345
0
LINE
5
115
100
AcDbEntity
8
0
100
AcDbLine
10
-2.7610294622942071
20
-3.7005480805902407
30
0
11
-2.5318453019853502
21
-3.6922351605293868
31
0
0
ARC
5
116
100
AcDbEntity
8
0
100
AcDbCircle
10
-2.5208736382437791
20
-3.9947199099791275
30
0
40
0.3026836649952071
210
0
220
-0
230
1
100
AcDbArc
50
38.790320592513332
51
92.07730988417778
0
SPLINE
5
117
100
AcDbEntity
8
0
100
AcDbSpline
70
4
71
5
72
21
73
15
74
0
42
0.000000001
43
0.0000000001
44
0.0000000001
40
0
40
0
40
0
40
0
40
0
40
0
40
0.10000000000000001
40
0.20000000000000001
40
0.30000000000000004
40
0.40000000000000002
40
0.5
40
0.59999999999999998
40
0.69999999999999996
40
0.79999999999999993
40
0.89999999999999991
40
1
40
1
40
1
40
1
40
1
40
1
41
1
41
1
41
1
41
1
41
1
41
1
41
1
41
1
41
1
41
1
41
1
41
1
41
1
41
1
41
1
10
-2.2849487289601784
20
-3.8050970257207766
30
0
10
-2.2653186524254294
20
-3.8295203637230411
30
0
10
-2.2232474163561982
20
-3.8794836431475632
30
0
10
-2.1517077844179413
20
-3.9577780576277575
30
0
10
-2.0397189654085195
20
-4.06762931046811
30
0
10
-1.8737616196797102
20
-4.2071021373287634
30
0
10
-1.6846695292038203
20
-4.3400041487966527
30
0
10
-1.4769338565399424
20
-4.457800039516334
30
0
10
-1.2574956871627982
20
-4.5541104001489741
30
0
10
-1.0371226992699494
20
-4.627267233951736
30
0
10
-0.82840607794270671
20
-4.6785045348097709
30
0
10
-0.68054576920145915
20
-4.7038756703101763
30
0
10
-0.58473895504791717
20
-4.7151436343610582
30
0
10
-0.52815079128775677
20
-4.7193482546684011
30
0
10
-0.50167762559441453
20
-4.7206237317057997
30
0
0
ARC
5
118
100
AcDbEntity
8
0
100
AcDbCircle
10
-0.50616767017711772
20
-4.813817142923182
30
0
40
0.093301513356894544
210
0
220
-0
230
1
100
AcDbArc
50
14.823755837975122
51
87.24163094430773
0
LINE
5
119
100
AcDbEntity
8
0
100
AcDbLine
10
-0.41597147440303733
20
-4.7899462681472009
30
0
11
-0.31090741387533316
21
-5.1869312408852899
31
0
0
ARC
5
120
100
AcDbEntity
8
0
100
AcDbCircle
10
-0.05238978181796379
20
-5.1592069930965652
30
0
40
0.25999999999999995
210
0
220
0
230
1
100
AcDbArc
50
186.12118521506258
51
331.45255537066203
0
LINE
5
121
100
AcDbEntity
8
0
100
AcDbLine
10
0.17599985834702256
20
-5.283457434807282
30
0
11
0.38382100380598966
21
-4.7102975377297698
31
0
0
ARC
5
122
100
AcDbEntity
8
0
100
AcDbCircle
10
0.4901798264315721
20
-4.7488620159153871
30
0
40
0.11313451342551921
210
0
220
0
230
1
100
AcDbArc
50
103.92838113047495
51
160.06994142226799
0
SPLINE
5
123
100
AcDbEntity
8
0
100
AcDbSpline
70
4
71
5
72
21
73
15
74
0
42
0.000000001
43
0.0000000001
44
0.0000000001
40
0
40
0
40
0
40
0
40
0
40
0
40
0.10000000000000001
40
0.20000000000000001
40
0.30000000000000004
40
0.40000000000000002
40
0.5
40
0.59999999999999998
40
0.69999999999999996
40
0.79999999999999993
40
0.89999999999999991
40
1
40
1
40
1
40
1
40
1
40
1
41
1
41
1
41
1
41
1
41
1
41
1
41
1
41
1
41
1
41
1
41
1
41
1
41
1
41
1
41
1
10
2.5121039851453246
20
-2.1637300588378117
30
0
10
2.5047796840617313
20
-2.2463773251107377
30
0
10
2.4863183750879569
20
-2.4078158646399541
30
0
10
2.4471889302690091
20
-2.6384062834523805
30
0
10
2.3722842386324947
20
-2.9234087053801519
30
0
10
2.2412876546111913
20
-3.2454226140133575
30
0
10
2.0734916811302542
20
-3.5364364323815276
30
0
10
1.8699430244487028
20
-3.7987648714629914
30
0
10
1.6329132557592276
20
-4.0331792401096669
30
0
10
1.3675933460017455
20
-4.2385229792836911
30
0
10
1.080588631191991
20
-4.4120463774588057
30
0
10
0.83867246143229279
20
-4.5224983757587651
30
0
10
0.65244362421472024
20
-4.5878085906060315
30
0
10
0.52642392982552499
20
-4.6233117400152377
30
0
10
0.46294734761300432
20
-4.639053955075453
30
0
0
ARC
5
124
100
AcDbEntity
8
0
100
AcDbCircle
10
2.6623870865926587
20
-2.1770483413619415
30
0
40
0.15087208896950516
210
0
220
-0
230
1
100
AcDbArc
50
83.526703045925544
51
174.93560451233247
0
ARC
5
125
100
AcDbEntity
8
0
100
AcDbCircle
10
2.7087088639569719
20
-1.7687957645960677
30
0
40
0.25999999999999973
210
0
220
0
230
1
100
AcDbArc
50
-96.473296954074755
51
77.89238339066992
0
ARC
5
126
100
AcDbEntity
8
0
100
AcDbCircle
10
2.8006580848591232
20
-1.3401689779255508
30
0
40
0.17837835425121662
210
0
220
0
230
1
100
AcDbArc
50
173.11472793895345
51
257.89238339066992
0
SPLINE
5
127
100
AcDbEntity
8
0
100
AcDbSpline
70
4
71
5
72
21
73
15
74
0
42
0.000000001
43
0.0000000001
44
0.0000000001
40
0
40
0
40
0
40
0
40
0
40
0
40
0.10000000000000001
40
0.20000000000000001
40
0.30000000000000004
40
0.40000000000000002
40
0.5
40
0.59999999999999998
40
0.69999999999999996
40
0.79999999999999993
40
0.89999999999999991
40
1
40
1
40
1
40
1
40
1
40
1
41
1
41
1
41
1
41
1
41
1
41
1
41
1
41
1
41
1
41
1
41
1
41
1
41
1
41
1
41
1
10
2.6656903041666133
20
2.31239777944189
30
0
10
2.6666310157265869
20
2.2600389671656114
30
0
10
2.6699734049924353
20
2.1581883269344333
30
0
10
2.6793703602836203
20
2.0140165594431942
30
0
10
2.6991251460964589
20
1.8328337460485289
30
0
10
2.7278910699943451
20
1.5939213051023211
30
0
10
2.7516418240803784
20
1.309465973950076
30
0
10
2.7635516442072312
20
0.95974183350410869
30
0
10
2.7612200373184432
20
0.54833228956550539
30
0
10
2.7446592825704186
20
0.091334464545671748
30
0
10
2.7153322981841175
20
-0.38828684919023609
30
0
10
2.6831769810682435
20
-0.77121435076118738
30
0
10
2.6549038098208393
20
-1.0494631649644812
30
0
10
2.6343038902994054
20
-1.2298612289726467
30
0
10
2.623566161330436
20
-1.3187846872830711
30
0
0
ARC
5
128
100
AcDbEntity
8
0
100
AcDbCircle
10
2.4297169984623932
20
2.3081581336808328
30
0
40
0.23601138871070737
210
0
220
-0
230
1
100
AcDbArc
50
1.0293014947507317
51
25.354675208446722
0
LINE
5
129
100
AcDbEntity
8
0
100
AcDbLine
10
2.6429944312120557
20
2.4092230251163351
30
0
11
2.41224361021415
21
2.8961769218485416
31
0
0
ARC
5
130
100
AcDbEntity
8
0
100
AcDbCircle
10
2.1026249256794096
20
2.7494592014808306
30
0
40
0.34262197723281096
210
0
220
-0
230
1
100
AcDbArc
50
25.354675208447922
51
82.976063622980178
0
SPLINE
5
131
100
AcDbEntity
8
0
100
AcDbSpline
70
4
71
5
72
76
73
70
74
0
42
0.000000001
43
0.0000000001
44
0.0000000001
40
0
40
0
40
0
40
0
40
0
40
0
40
0.015384615384615385
40
0.030769230769230771
40
0.046153846153846156
40
0.061538461538461542
40
0.076923076923076927
40
0.092307692307692313
40
0.1076923076923077
40
0.12307692307692308
40
0.13846153846153847
40
0.15384615384615385
40
0.16923076923076924
40
0.18461538461538463
40
0.20000000000000001
40
0.2153846153846154
40
0.23076923076923078
40
0.24615384615384617
40
0.26153846153846155
40
0.27692307692307694
40
0.29230769230769232
40
0.30769230769230771
40
0.32307692307692309
40
0.33846153846153848
40
0.35384615384615387
40
0.36923076923076925
40
0.38461538461538464
40
0.40000000000000002
40
0.41538461538461541
40
0.43076923076923079
40
0.44615384615384618
40
0.46153846153846156
40
0.47692307692307695
40
0.49230769230769234
40
0.50769230769230766
40
0.52307692307692299
40
0.53846153846153832
40
0.55384615384615365
40
0.56923076923076898
40
0.58461538461538431
40
0.59999999999999964
40
0.61538461538461497
40
0.6307692307692303
40
0.64615384615384563
40
0.66153846153846096
40
0.67692307692307629
40
0.69230769230769162
40
0.70769230769230695
40
0.72307692307692228
40
0.73846153846153761
40
0.75384615384615294
40
0.76923076923076827
40
0.7846153846153836
40
0.79999999999999893
40
0.81538461538461426
40
0.83076923076922959
40
0.84615384615384492
40
0.86153846153846025
40
0.87692307692307558
40
0.89230769230769091
40
0.90769230769230624
40
0.92307692307692157
40
0.9384615384615369
40
0.95384615384615223
40
0.96923076923076756
40
0.98461538461538289
40
1
40
1
40
1
40
1
40
1
40
1
41
1
41
1
41
1
41
1
41
1
41
1
41
1
41
1
41
1
41
1
41
1
41
1
41
1
41
1
41
1
41
1
41
1
41
1
41
1
41
1
41
1
41
1
41
1
41
1
41
1
41
1
41
1
41
1
41
1
41
1
41
1
41
1
41
1
41
1
41
1
41
1
41
1
41
1
41
1
41
1
41
1
41
1
41
1
41
1
41
1
41
1
41
1
41
1
41
1
41
1
41
1
41
1
41
1
41
1
41
1
41
1
41
1
41
1
41
1
41
1
41
1
41
1
41
1
41
1
41
1
41
1
41
1
41
1
41
1
41
1
10
-2.8980561480307565
20
3.011326549822182
30
0
10
-2.8839972524610298
20
3.0175372463844918
30
0
10
-2.8576293699940112
20
3.028740360827717
30
0
10
-2.8233332217853069
20
3.0418913413450483
30
0
10
-2.788806887999872
20
3.0539441999198926
30
0
10
-2.7658571241782748
20
3.0698675853012478
30
0
10
-2.7592889210978417
20
3.0980949253805705
30
0
10
-2.7588787648504152
20
3.1481423327733244
30
0
10
-2.7569041316856446
20
3.2236904224090055
30
0
10
-2.7508140803670633
20
3.3216536154591774
30
0
10
-2.7410180580148444
20
3.4351709100459762
30
0
10
-2.7297292097046468
20
3.5556816367446955
30
0
10
-2.7194857811358029
20
3.675195170866937
30
0
10
-2.7115832858228908
20
3.7888961673878971
30
0
10
-2.7053482280025465
20
3.896130953994148
30
0
10
-2.6988729577461004
20
3.998738627728506
30
0
10
-2.6893956933454572
20
4.1000242285319768
30
0
10
-2.6738256298327614
20
4.2034638540386391
30
0
10
-2.64919793027495
20
4.3115524297008916
30
0
10
-2.6131785903658309
20
4.4245155587487677
30
0
10
-2.5641022264060602
20
4.5407788143158347
30
0
10
-2.500990557832401
20
4.6575328379012939
30
0
10
-2.4235752062562774
20
4.7712539330148998
30
0
10
-2.3323280029058671
20
4.8782602178790562
30
0
10
-2.2284707234198096
20
4.9752095229293216
30
0
10
-2.1140414722244301
20
5.0597281801357621
30
0
10
-1.9917460580553887
20
5.1305480214092638
30
0
10
-1.8646245653628888
20
5.1872206531914751
30
0
10
-1.735768516103162
20
5.2299511965496297
30
0
10
-1.6080221332950269
20
5.2593861237493673
30
0
10
-1.4836796272008135
20
5.2764175415801118
30
0
10
-1.3642082375176174
20
5.2819908890738834
30
0
10
-1.249894013254369
20
5.2768856788837954
30
0
10
-1.1400467782482271
20
5.2617177966824142
30
0
10
-1.0333273457754177
20
5.2369917417936289
30
0
10
-0.92803408321418379
20
5.2031359237933437
30
0
10
-0.82240008296504807
20
5.160544207095362
30
0
10
-0.71489899741500285
20
5.1096167360466529
30
0
10
-0.60450793275423542
20
5.0507954567413709
30
0
10
-0.49062189753138707
20
4.9845493243406125
30
0
10
-0.37300332141015807
20
4.9113645489104263
30
0
10
-0.25171911915966377
20
4.8317333918017704
30
0
10
-0.12708273660387909
20
4.7461427775899576
30
0
10
0.0004034158136046883
20
4.6550651111056967
30
0
10
0.13011024940479315
20
4.5589432454744028
30
0
10
0.26132699848439334
20
4.4581930041402176
30
0
10
0.39323155452135905
20
4.3532802423066936
30
0
10
0.52487106065207068
20
4.2447876856604765
30
0
10
0.65513904530275502
20
4.1334851279670985
30
0
10
0.78275206998050961
20
4.0204003950555274
30
0
10
0.90623029957221646
20
3.9068860276448274
30
0
10
1.0238668301732785
20
3.7946984977094824
30
0
10
1.133723316104682
20
3.6860487551400065
30
0
10
1.2335570408193701
20
3.5837283189410201
30
0
10
1.3212304147352965
20
3.4907051944957166
30
0
10
1.3952255649133172
20
3.4096035915488438
30
0
10
1.4551320264149465
20
3.3422158031363951
30
0
10
1.5021289746053772
20
3.2890155851878329
30
0
10
1.5395150362179566
20
3.2486312561052411
30
0
10
1.5731202969135119
20
3.2174218218392641
30
0
10
1.6091987909540997
20
3.1913460950167378
30
0
10
1.6517044937922873
20
3.1683722325845372
30
0
10
1.7015325405905388
20
3.1491614001216495
30
0
10
1.7591624658389731
20
3.1347445626818264
30
0
10
1.827125388272651
20
3.1243814717450422
30
0
10
1.9099072749852
20
3.1155489753725116
30
0
10
1.9918171283218842
20
3.107299620148317
30
0
10
2.0638464791321298
20
3.099263396703889
30
0
10
2.1168067303405831
20
3.092924626956596
30
0
10
2.1445221072141099
20
3.0895098527996603
30
0
0
ARC
5
132
100
AcDbEntity
8
0
100
AcDbCircle
10
-2.7929929882802078
20
2.7734994435806297
30
0
40
0.2599999999999999
210
0
220
0
230
1
100
AcDbArc
50
113.83405654277207
51
244.59782433254327
0
SPLINE
5
133
100
AcDbEntity
8
0
100
AcDbSpline
70
4
71
5
72
71
73
65
74
0
42
0.000000001
43
0.0000000001
44
0.0000000001
40
0
40
0
40
0
40
0
40
0
40
0
40
0.016666666666666666
40
0.033333333333333333
40
0.050000000000000003
40
0.066666666666666666
40
0.083333333333333329
40
0.099999999999999992
40
0.11666666666666665
40
0.13333333333333333
40
0.14999999999999999
40
0.16666666666666666
40
0.18333333333333332
40
0.19999999999999998
40
0.21666666666666665
40
0.23333333333333331
40
0.24999999999999997
40
0.26666666666666666
40
0.28333333333333333
40
0.29999999999999999
40
0.31666666666666665
40
0.33333333333333331
40
0.34999999999999998
40
0.36666666666666664
40
0.3833333333333333
40
0.39999999999999997
40
0.41666666666666663
40
0.43333333333333329
40
0.44999999999999996
40
0.46666666666666662
40
0.48333333333333328
40
0.49999999999999994
40
0.51666666666666661
40
0.53333333333333333
40
0.55000000000000004
40
0.56666666666666676
40
0.58333333333333348
40
0.6000000000000002
40
0.61666666666666692
40
0.63333333333333364
40
0.65000000000000036
40
0.66666666666666707
40
0.68333333333333379
40
0.70000000000000051
40
0.71666666666666723
40
0.73333333333333395
40
0.75000000000000067
40
0.76666666666666738
40
0.7833333333333341
40
0.80000000000000082
40
0.81666666666666754
40
0.83333333333333426
40
0.85000000000000098
40
0.8666666666666677
40
0.88333333333333441
40
0.90000000000000113
40
0.91666666666666785
40
0.93333333333333457
40
0.95000000000000129
40
0.96666666666666801
40
0.98333333333333472
40
1
40
1
40
1
40
1
40
1
40
1
41
1
41
1
41
1
41
1
41
1
41
1
41
1
41
1
41
1
41
1
41
1
41
1
41
1
41
1
41
1
41
1
41
1
41
1
41
1
41
1
41
1
41
1
41
1
41
1
41
1
41
1
41
1
41
1
41
1
41
1
41
1
41
1
41
1
41
1
41
1
41
1
41
1
41
1
41
1
41
1
41
1
41
1
41
1
41
1
41
1
41
1
41
1
41
1
41
1
41
1
41
1
41
1
41
1
41
1
41
1
41
1
41
1
41
1
41
1
41
1
41
1
41
1
41
1
41
1
41
1
10
-2.9913729978225265
20
-0.1348181856226062
30
0
10
-2.9849110226032889
20
-0.13263557489100392
30
0
10
-2.9727669444590887
20
-0.12858718527083057
30
0
10
-2.9568906079668706
20
-0.12346514271045618
30
0
10
-2.9401740732795112
20
-0.11814308288119806
30
0
10
-2.9254608395471871
20
-0.11170593583024854
30
0
10
-2.9154518819253377
20
-0.10251738696641371
30
0
10
-2.9089405544130806
20
-0.087606953549164562
30
0
10
-2.9050073849301254
20
-0.064528007310007629
30
0
10
-2.9028912856114051
20
-0.031856556104935062
30
0
10
-2.9019123599123557
20
0.010321150204752251
30
0
10
-2.9014815437720989
20
0.060756823431484488
30
0
10
-2.9011161398297731
20
0.1173616573919579
30
0
10
-2.9004525157502385
20
0.17753436254278307
30
0
10
-2.8992609862268299
20
0.23848915363855294
30
0
10
-2.8974582957885504
20
0.29757387608346791
30
0
10
-2.8951255248079191
20
0.35261461774007041
30
0
10
-2.8925113837640817
20
0.40218274830474787
30
0
10
-2.8899588058021073
20
0.44548522968133458
30
0
10
-2.8878464547639267
20
0.48230728473916024
30
0
10
-2.8865152415240112
20
0.51293390737348044
30
0
10
-2.8862224689674187
20
0.53808608171454264
30
0
10
-2.8870321254127411
20
0.55884050371862748
30
0
10
-2.8889194180277626
20
0.57659595905724825
30
0
10
-2.8920171486070205
20
0.59305929305192751
30
0
10
-2.8969542810724436
20
0.6102685289838784
30
0
10
-2.9046772235858813
20
0.63044615573548457
30
0
10
-2.9158614401303442
20
0.65571631602379032
30
0
10
-2.9303150069750341
20
0.68782827389605905
30
0
10
-2.9468302689931596
20
0.72799195430293417
30
0
10
-2.9636065667235236
20
0.77686259974526695
30
0
10
-2.97851761732784
20
0.8344831157862207
30
0
10
-2.9894402161723086
20
0.90024380543846039
30
0
10
-2.9945598512966831
20
0.97283026472544087
30
0
10
-2.9926789375566227
20
1.0501819707121334
30
0
10
-2.9835435364053278
20
1.1294279587860767
30
0
10
-2.9681103027613127
20
1.2068794823297342
30
0
10
-2.9481670488560567
20
1.2786230695357332
30
0
10
-2.9260076497589296
20
1.3410588512725679
30
0
10
-2.9040826842757976
20
1.3914755352354238
30
0
10
-2.8846716557244174
20
1.4285762763508916
30
0
10
-2.8695209476943342
20
1.4531094273893166
30
0
10
-2.8595537033029168
20
1.4682684232768033
30
0
10
-2.8544051161015034
20
1.4806593597920419
30
0
10
-2.8525525264697844
20
1.4993433357563339
30
0
10
-2.852083493825063
20
1.5329225235643991
30
0
10
-2.8514144782903861
20
1.5865956016834883
30
0
10
-2.8495979897557309
20
1.6612166215104058
30
0
10
-2.8461476809332669
20
1.7545353013387746
30
0
10
-2.8410020558287616
20
1.8618147301020149
30
0
10
-2.8344321200356055
20
1.976698070887712
30
0
10
-2.8269734952577514
20
2.0919680209402221
30
0
10
-2.8193492318073674
20
2.2003425091777067
30
0
10
-2.8123955305523736
20
2.2952719920292535
30
0
10
-2.8069900067814899
20
2.3716956797683006
30
0
10
-2.8039707815456389
20
2.4269142462054667
30
0
10
-2.8040785953180571
20
2.4611921762676419
30
0
10
-2.8078423478239838
20
2.4790291724077576
30
0
10
-2.8156489557071662
20
2.488234314568242
30
0
10
-2.8280071146745978
20
2.4964318944489543
30
0
10
-2.8458546697337885
20
2.5074780233159246
30
0
10
-2.8654595923279711
20
2.5189059482569891
30
0
10
-2.8836019816370198
20
2.5284863962511359
30
0
10
-2.8972858773261665
20
2.5351987577246065
30
0
10
-2.9045250413926875
20
2.5386365024244841
30
0
0
ENDSEC
0
SECTION
2
OBJECTS
0
DICTIONARY
5
C
100
AcDbDictionary
3
ACAD_GROUP
350
D
3
ACAD_MLINESTYLE
350
17
0
DICTIONARY
5
D
100
AcDbDictionary
0
DICTIONARY
5
1A
330
C
100
AcDbDictionary
0
DICTIONARY
5
17
100
AcDbDictionary
0
ENDSEC
0
EOF
